<svg id="Group_902" data-name="Group 902" xmlns="http://www.w3.org/2000/svg" width="20" height="20" viewBox="0 0 20 20">
  <g id="gps-fixed">
    <path id="Path_481" data-name="Path 481" d="M10,6.364A3.636,3.636,0,1,0,13.636,10,3.647,3.647,0,0,0,10,6.364Zm8.091,2.727a8.12,8.12,0,0,0-7.182-7.182V0H9.091V1.909A7.954,7.954,0,0,0,1.909,9.091H0v1.818H1.909a8.12,8.12,0,0,0,7.182,7.182V20h1.818V18.091a8.12,8.12,0,0,0,7.182-7.182H20V9.091ZM10,16.364A6.364,6.364,0,1,1,16.364,10,6.324,6.324,0,0,1,10,16.364Z" fill="#ff355a"/>
  </g>
</svg>
