<svg id="bookmark_icon" xmlns="http://www.w3.org/2000/svg" xmlns:xlink="http://www.w3.org/1999/xlink" width="13.951" height="18" viewBox="0 0 13.951 18">
  <defs>
    <clipPath id="clip-path">
      <path id="Path_515" data-name="Path 515" d="M4.872-23H17.079a.872.872,0,0,1,.872.872V-5.437a.436.436,0,0,1-.225.382.436.436,0,0,1-.443-.012L10.976-9.023,4.668-5.068a.436.436,0,0,1-.443.012A.436.436,0,0,1,4-5.437V-22.128A.872.872,0,0,1,4.872-23Zm11.335,1.744H5.744V-7.8l5.232-3.279L16.207-7.8Z" transform="translate(-4 23)" fill="none"/>
    </clipPath>
    <clipPath id="clip-path-2">
      <path id="Path_514" data-name="Path 514" d="M-908,691.569H2356.542V-1497H-908Z" transform="translate(908 1497)" fill="none"/>
    </clipPath>
  </defs>
  <g id="Group_962" data-name="Group 962" clip-path="url(#clip-path)">
    <g id="Group_961" data-name="Group 961" transform="translate(-795.209 -1285.239)" clip-path="url(#clip-path-2)">
      <path id="Path_513" data-name="Path 513" d="M-1-28H21.67V-1.281H-1Z" transform="translate(791.849 1308.88)"/>
    </g>
  </g>
</svg>
