<svg id="calendar_icon" xmlns="http://www.w3.org/2000/svg" width="24" height="24" viewBox="0 0 24 24">
  <path id="Path_1228" data-name="Path 1228" d="M21.25,64.668H2.75A2.752,2.752,0,0,1,0,61.918v-16.5a2.752,2.752,0,0,1,2.75-2.75h18.5A2.752,2.752,0,0,1,24,45.418v16.5A2.752,2.752,0,0,1,21.25,64.668Zm-18.5-20.5a1.252,1.252,0,0,0-1.25,1.25v16.5a1.252,1.252,0,0,0,1.25,1.25h18.5a1.252,1.252,0,0,0,1.25-1.25v-16.5a1.252,1.252,0,0,0-1.25-1.25Z" transform="translate(0 -40.668)" fill="#1a1a1a"/>
  <path id="Path_1229" data-name="Path 1229" d="M23.25,172.168H.75a.75.75,0,0,1,0-1.5h22.5a.75.75,0,0,1,0,1.5Z" transform="translate(0 -162.668)" fill="#1a1a1a"/>
  <path id="Path_1230" data-name="Path 1230" d="M107.418,6a.75.75,0,0,1-.75-.75V.75a.75.75,0,0,1,1.5,0v4.5A.75.75,0,0,1,107.418,6Z" transform="translate(-101.668)" fill="#1a1a1a"/>
  <path id="Path_1231" data-name="Path 1231" d="M374.082,6a.75.75,0,0,1-.75-.75V.75a.75.75,0,0,1,1.5,0v4.5A.75.75,0,0,1,374.082,6Z" transform="translate(-355.832)" fill="#1a1a1a"/>
</svg>
