<svg id="camera_icon" xmlns="http://www.w3.org/2000/svg" width="18" height="14.25" viewBox="0 0 18 14.25">
  <path id="Path_1262" data-name="Path 1262" d="M298.447-405.971a4.129,4.129,0,0,1-4.125-4.125,4.129,4.129,0,0,1,4.125-4.125,4.129,4.129,0,0,1,4.125,4.125A4.129,4.129,0,0,1,298.447-405.971Zm0-7.125a3,3,0,0,0-3,3,3,3,0,0,0,3,3,3,3,0,0,0,3-3A3,3,0,0,0,298.447-413.1Z" transform="translate(-289.447 417.971)" fill="#00b0c4"/>
  <path id="Path_1263" data-name="Path 1263" d="M171.4-506.639H157.717a2.064,2.064,0,0,1-2.063-2.062v-7.875a2.064,2.064,0,0,1,2.063-2.062h2.84l.555-1.11a2.052,2.052,0,0,1,1.844-1.14h3.323a2.059,2.059,0,0,1,1.9,1.269l.408.981h3a2.064,2.064,0,0,1,2.063,2.063v7.875A2.225,2.225,0,0,1,171.4-506.639Zm-13.687-10.875a.939.939,0,0,0-.938.938v7.875a.939.939,0,0,0,.938.937H171.4a1.116,1.116,0,0,0,1.125-.937v-7.875a.939.939,0,0,0-.938-.937h-3.375a.562.562,0,0,1-.519-.346l-.553-1.327a.935.935,0,0,0-.866-.577h-3.322a.933.933,0,0,0-.839.518l-.71,1.421a.563.563,0,0,1-.5.311Z" transform="translate(-155.654 520.889)" fill="#00b0c4"/>
  <path id="Path_1264" data-name="Path 1264" d="M561.717-391.369a.751.751,0,0,1-.75-.75.751.751,0,0,1,.75-.75.751.751,0,0,1,.75.75A.751.751,0,0,1,561.717-391.369Zm0-1.125a.375.375,0,0,0-.375.375.375.375,0,0,0,.375.375.375.375,0,0,0,.375-.375A.375.375,0,0,0,561.717-392.494Z" transform="translate(-546.718 397.37)" fill="#00b0c4"/>
</svg>
