<svg id="cancel-appoint-icon" xmlns="http://www.w3.org/2000/svg" width="24" height="24" viewBox="0 0 24 24">
  <defs>
    <style>
      .cls-1 {
        fill: #00b0c4;
      }
    </style>
  </defs>
  <path id="Path_1448" data-name="Path 1448" class="cls-1" d="M16.741,8.491,13.3,11.93l3.439,3.439a.937.937,0,1,1-1.326,1.326l-3.439-3.439L8.538,16.694a.937.937,0,0,1-1.326-1.326l3.439-3.439L7.212,8.491A.937.937,0,0,1,8.538,7.165L11.977,10.6l3.439-3.439a.937.937,0,0,1,1.326,1.326Zm3.744-4.976A12,12,0,0,0,3.515,20.485a12,12,0,0,0,14.694,1.785.937.937,0,1,0-.971-1.6,10.214,10.214,0,1,1,3.17-3.047.937.937,0,1,0,1.559,1.042A11.971,11.971,0,0,0,20.485,3.515Z"/>
</svg>
