<svg id="chatting_icon" xmlns="http://www.w3.org/2000/svg" xmlns:xlink="http://www.w3.org/1999/xlink" width="14" height="14" viewBox="0 0 14 14">
  <defs>
    <clipPath id="clip-path">
      <path id="Path_417" data-name="Path 417" d="M5.7-8.823,2-8l.823-3.7A6.969,6.969,0,0,1,2-15a7,7,0,0,1,7-7,7,7,0,0,1,7,7A7,7,0,0,1,9-8a6.969,6.969,0,0,1-3.3-.823Z" transform="translate(-2 22)" fill="#b1b1b1"/>
    </clipPath>
    <clipPath id="clip-path-2">
      <path id="Path_416" data-name="Path 416" d="M-844-383H1776.8V-2140H-844Z" transform="translate(844 2140)" fill="#b1b1b1"/>
    </clipPath>
  </defs>
  <g id="Group_775" data-name="Group 775" clip-path="url(#clip-path)">
    <g id="Group_774" data-name="Group 774" transform="translate(-592.199 -1482.598)" clip-path="url(#clip-path-2)">
      <path id="Path_415" data-name="Path 415" d="M-3-27H18V-6H-3Z" transform="translate(591.699 1506.098)" fill="#b1b1b1"/>
    </g>
  </g>
</svg>
