<svg id="contact_icon" xmlns="http://www.w3.org/2000/svg" width="20" height="20" viewBox="0 0 20 20">
  <path id="Path_1294" data-name="Path 1294" d="M116.667,149.333h-8.333A1.668,1.668,0,0,0,106.667,151v5a1.668,1.668,0,0,0,1.667,1.667h8.333A1.668,1.668,0,0,0,118.334,156v-5A1.668,1.668,0,0,0,116.667,149.333Zm0,3.333-3.9,1.817a.639.639,0,0,1-.533,0l-3.9-1.817v-1.383l4.167,1.942,4.167-1.942Z" transform="translate(-102.5 -143.5)" fill="#00b0c4"/>
  <path id="Path_1295" data-name="Path 1295" d="M10,20A10,10,0,1,1,16.362,2.287.833.833,0,1,1,15.3,3.572,8.332,8.332,0,1,0,18.333,10,.833.833,0,0,1,20,10,10.011,10.011,0,0,1,10,20Z" fill="#00b0c4"/>
  <path id="Path_1296" data-name="Path 1296" d="M339.75,16v3.75H336Z" transform="translate(-322.875 -15.375)" fill="#00b0c4"/>
  <path id="Path_1297" data-name="Path 1297" d="M324.383,5h-3.75a.625.625,0,0,1-.442-1.067l3.75-3.75a.625.625,0,0,1,1.067.442v3.75a.625.625,0,0,1-.625.625Zm-2.241-1.25h1.616V2.137Z" transform="translate(-307.508 -0.003)" fill="#00b0c4"/>
</svg>
