<svg id="doctor_icon" xmlns="http://www.w3.org/2000/svg" width="17.5" height="20" viewBox="0 0 17.5 20">
  <g id="Group_1194" data-name="Group 1194">
    <path id="Path_1270" data-name="Path 1270" d="M38.632,6.36A2.81,2.81,0,0,0,37.8,11.87v2.354a3.781,3.781,0,1,1-7.534,0v-.811a5.231,5.231,0,0,0,2.188-.834h0A5.813,5.813,0,0,0,34.867,7.7V1.742a.834.834,0,0,0-.833-.833H32.149V.833a.833.833,0,0,0-1.667,0v1.89a.833.833,0,0,0,1.667,0V2.575H33.2V7.7a4.426,4.426,0,0,1-.985,2.874,3.52,3.52,0,0,0-5.565,0A4.424,4.424,0,0,1,25.667,7.7V2.575h1.052v.148a.833.833,0,0,0,1.667,0V.833a.833.833,0,0,0-1.667,0V.908H24.833A.834.834,0,0,0,24,1.742V7.7a5.806,5.806,0,0,0,2.414,4.882h0a5.233,5.233,0,0,0,2.183.833v.812a5.443,5.443,0,1,0,10.867,0V11.87a2.81,2.81,0,0,0-.833-5.511Zm-9.2,5.446h0A3.914,3.914,0,0,1,28,11.542a1.879,1.879,0,0,1,2.874,0A3.906,3.906,0,0,1,29.433,11.805Zm9.2-1.48a1.151,1.151,0,1,1,1.2-1.15A1.178,1.178,0,0,1,38.632,10.326Z" transform="translate(-24)" fill="#00b0c4"/>
  </g>
</svg>
