<svg id="facebook" xmlns="http://www.w3.org/2000/svg" width="17" height="17" viewBox="0 0 17 17">
  <path id="Path_424" data-name="Path 424" d="M14.875,0H2.125A2.127,2.127,0,0,0,0,2.125v12.75A2.127,2.127,0,0,0,2.125,17h12.75A2.127,2.127,0,0,0,17,14.875V2.125A2.127,2.127,0,0,0,14.875,0Z" fill="#1976d2"/>
  <path id="Path_425" data-name="Path 425" d="M199.969,101.312h-2.656V99.187c0-.587.476-.531,1.063-.531h1.063V96h-2.125a3.187,3.187,0,0,0-3.187,3.188v2.125H192v2.656h2.125v5.844h3.188v-5.844h1.594Z" transform="translate(-185.625 -92.813)" fill="#fafafa"/>
</svg>
