<svg id="family_icon" xmlns="http://www.w3.org/2000/svg" width="18" height="13.711" viewBox="0 0 18 13.711">
  <path id="Path_495" data-name="Path 495" d="M5.715,266.806l.264-.3a3.166,3.166,0,0,1,.013-1.924,3.687,3.687,0,0,1-4.591-.856A3.685,3.685,0,0,0,0,266.62v5.273a.528.528,0,0,0,.527.527H4.872a1.569,1.569,0,0,1-.091-.527v-2.637a3.683,3.683,0,0,1,.934-2.451Z" transform="translate(0 -258.71)" fill="#00b0c4"/>
  <circle id="Ellipse_34" data-name="Ellipse 34" cx="2.637" cy="2.637" r="2.637" transform="translate(1.582)" fill="#00b0c4"/>
  <path id="Path_496" data-name="Path 496" d="M346.151,263.728a3.686,3.686,0,0,1-4.591.856,3.167,3.167,0,0,1,.013,1.925l.264.3a3.683,3.683,0,0,1,.934,2.451v2.637a1.569,1.569,0,0,1-.091.527h4.345a.528.528,0,0,0,.527-.527V266.62a3.685,3.685,0,0,0-1.4-2.892Z" transform="translate(-329.552 -258.71)" fill="#00b0c4"/>
  <circle id="Ellipse_35" data-name="Ellipse 35" cx="2.637" cy="2.637" r="2.637" transform="translate(11.145)" fill="#00b0c4"/>
  <path id="Path_497" data-name="Path 497" d="M169.164,372.431a3.16,3.16,0,0,1-2.5-1.223,2.625,2.625,0,0,0-.667,1.75V375.6a.528.528,0,0,0,.527.527H171.8a.528.528,0,0,0,.527-.527v-2.637a2.625,2.625,0,0,0-.667-1.75A3.16,3.16,0,0,1,169.164,372.431Z" transform="translate(-160.164 -362.412)" fill="#00b0c4"/>
  <circle id="Ellipse_36" data-name="Ellipse 36" cx="2.109" cy="2.109" r="2.109" transform="translate(6.891 4.746)" fill="#00b0c4"/>
</svg>
