<svg xmlns="http://www.w3.org/2000/svg" width="75.002" height="76.109" viewBox="0 0 75.002 76.109">
  <g id="fav-logo" transform="translate(0 0)">
    <g id="Group_981" data-name="Group 981" transform="translate(33.251 -105.403) rotate(16)">
      <g id="Group_980" data-name="Group 980" transform="translate(13.489 105.783)">
        <path id="Path_520" data-name="Path 520" d="M63.024,153.011s11.008-3.6,13.685,4.556c0,0,.533,3.178.63,4.833,0,0,.251,1.616.6,3.437a27.68,27.68,0,0,0,.793,3.479,1.081,1.081,0,0,1-.874,1.187H66.141a8.9,8.9,0,0,1-3.484-1.348c-1.822-1.22-3.8-3.533-4.444-7.9l-8,.712s.719,13.364,14.1,16.278H86.267a2.94,2.94,0,0,1,2.907,3.282s.268,2.262-3.642,3.11l-4.014-.067-.084,7.515H87.15s8.033-.457,9.854-8.651c0,0,1.31-9.742-7.265-12.018,0,0-4.124-.758-4.479-8.467,0,0,.365-10.288-6.282-14.75,0,0-8.662-6.672-18.857-2.659Z" transform="translate(-36.799 -130.199)" fill="#00b0c4"/>
        <path id="Path_521" data-name="Path 521" d="M56.457,117.1s-16.842-10.164-30.737,5.822c0,0-10.828,14.5,1.092,28.511a23.8,23.8,0,0,0,14.4,8.147l18.748.6.073,7.495L40.7,167.594s-13.987-1.56-22.034-13.382c0,0-11.027-15.448-.894-33.28,0,0,7.468-14.653,26.683-15.149,0,0,10.508.656,16.211,4.539Z" transform="translate(-13.489 -105.783)" fill="#ff355a"/>
        <circle id="Ellipse_45" data-name="Ellipse 45" cx="4.013" cy="4.013" r="4.013" transform="translate(20.957 14.986)" fill="#00b0c4"/>
        <circle id="Ellipse_46" data-name="Ellipse 46" cx="4.013" cy="4.013" r="4.013" transform="translate(13.4 27.368)" fill="#00b0c4"/>
        <circle id="Ellipse_47" data-name="Ellipse 47" cx="4.013" cy="4.013" r="4.013" transform="translate(41.442 4.152)" fill="#ff355a"/>
        <circle id="Ellipse_48" data-name="Ellipse 48" cx="4.013" cy="4.013" r="4.013" transform="translate(41.442 4.152)" fill="#13327c" opacity="0.5"/>
        <circle id="Ellipse_49" data-name="Ellipse 49" cx="4.013" cy="4.013" r="4.013" transform="translate(20.957 14.986)" fill="#13327c" opacity="0.5"/>
        <circle id="Ellipse_50" data-name="Ellipse 50" cx="4.013" cy="4.013" r="4.013" transform="translate(13.4 27.368)" fill="#13327c" opacity="0.5"/>
      </g>
      <path id="Path_522" data-name="Path 522" d="M128.246,261.981h-3.329a3.956,3.956,0,0,1-3.956-3.956h0a3.651,3.651,0,0,1,3.733-3.651l3.479.112Z" transform="translate(-68.209 -94.306)" fill="#13327c" opacity="0.5"/>
      <path id="Path_523" data-name="Path 523" d="M140.775,262.176h3.182a3.956,3.956,0,0,0,3.956-3.956h0a3.484,3.484,0,0,0-3.7-3.476l-3.509-.063Z" transform="translate(-80.738 -94.501)" fill="#13327c" opacity="0.5"/>
    </g>
  </g>
</svg>
