<svg id="Group_1323" data-name="Group 1323" xmlns="http://www.w3.org/2000/svg" width="20.735" height="24" viewBox="0 0 20.735 24">
  <g id="Group_1320" data-name="Group 1320" transform="translate(5.678)">
    <g id="Group_1319" data-name="Group 1319">
      <path id="Path_1390" data-name="Path 1390" d="M156.993,0A4.7,4.7,0,0,0,152.3,4.69V7.12a4.689,4.689,0,1,0,9.379,0V4.69A4.7,4.7,0,0,0,156.993,0Z" transform="translate(-152.304)" fill="#26c6da"/>
    </g>
  </g>
  <g id="Group_1322" data-name="Group 1322" transform="translate(0 12.571)">
    <g id="Group_1321" data-name="Group 1321">
      <path id="Path_1391" data-name="Path 1391" d="M54.716,267.246a11.894,11.894,0,0,0-6.758-5.342.187.187,0,0,0-.187.046,19.58,19.58,0,0,1-3.393,2.579,24.356,24.356,0,0,1-3.4-2.579.187.187,0,0,0-.187-.046,11.891,11.891,0,0,0-6.758,5.342.188.188,0,0,0,0,.19,12.026,12.026,0,0,0,20.684,0A.187.187,0,0,0,54.716,267.246Zm-3.964,1.4a.2.2,0,0,1-.2.183H49.28a.219.219,0,0,0-.216.193v1.313a.161.161,0,0,1-.159.182H47.765a.2.2,0,0,1-.2-.182V269.02a.182.182,0,0,0-.175-.193H46.064a.185.185,0,0,1-.189-.183v-1.131a.189.189,0,0,1,.189-.187h1.325a.177.177,0,0,0,.174-.188v-1.315a.2.2,0,0,1,.2-.185h1.128a.172.172,0,0,1,.171.185v1.319a.2.2,0,0,0,.2.184h1.283a.2.2,0,0,1,.2.191v1.127Z" transform="translate(-34.007 -261.896)" fill="#26c6da"/>
    </g>
  </g>
</svg>
