<svg id="google" xmlns="http://www.w3.org/2000/svg" width="17" height="17" viewBox="0 0 17 17">
  <path id="Path_426" data-name="Path 426" d="M3.984,105.388a4.488,4.488,0,0,1,.635-2.307v-2.866H1.754a8.5,8.5,0,0,0,0,10.345H4.62v-2.866A4.488,4.488,0,0,1,3.984,105.388Z" transform="translate(0 -96.888)" fill="#fbbd00"/>
  <path id="Path_427" data-name="Path 427" d="M197.992,373.593,196,375.585l1.992,1.992a8.436,8.436,0,0,0,5.173-1.754v-2.863H200.3A4.515,4.515,0,0,1,197.992,373.593Z" transform="translate(-189.492 -360.578)" fill="#0f9d58"/>
  <path id="Path_428" data-name="Path 428" d="M55.689,325.477l-2.866,2.866a8.639,8.639,0,0,0,.736.838,8.444,8.444,0,0,0,6.01,2.49v-3.984a4.517,4.517,0,0,1-3.88-2.209Z" transform="translate(-51.069 -314.67)" fill="#31aa52"/>
  <path id="Path_429" data-name="Path 429" d="M264.5,199.272a8.574,8.574,0,0,0-.139-1.54l-.075-.408H256v3.984h4.033a4.5,4.5,0,0,1-1.723,1.847l2.863,2.863a8.636,8.636,0,0,0,.838-.736A8.444,8.444,0,0,0,264.5,199.272Z" transform="translate(-247.5 -190.772)" fill="#3c79e6"/>
  <path id="Path_430" data-name="Path 430" d="M201.185,5.307l.352.352,2.817-2.817L204,2.49A8.444,8.444,0,0,0,197.992,0L196,1.992l1.992,1.992A4.486,4.486,0,0,1,201.185,5.307Z" transform="translate(-189.492)" fill="#cf2d48"/>
  <path id="Path_431" data-name="Path 431" d="M59.568,3.984V0a8.445,8.445,0,0,0-6.01,2.49,8.627,8.627,0,0,0-.736.838l2.866,2.866A4.518,4.518,0,0,1,59.568,3.984Z" transform="translate(-51.068)" fill="#eb4132"/>
</svg>
