<svg id="home_icon" xmlns="http://www.w3.org/2000/svg" width="23.999" height="24" viewBox="0 0 23.999 24">
  <path id="Path_1225" data-name="Path 1225" d="M19.259,24h-4a.75.75,0,0,1-.75-.75v-6.5a.25.25,0,0,0-.25-.25h-4.5a.25.25,0,0,0-.25.25v6.5a.75.75,0,0,1-.75.75h-4a1.752,1.752,0,0,1-1.75-1.75V13H1.259a1.252,1.252,0,0,1-1.25-1.25,1.268,1.268,0,0,1,.37-.89L11.49.208a.75.75,0,0,1,1.038,0l11.1,10.64a1.281,1.281,0,0,1,.381.9A1.252,1.252,0,0,1,22.759,13h-1.75v9.25A1.752,1.752,0,0,1,19.259,24Zm-3.25-1.5h3.25a.253.253,0,0,0,.25-.25v-10a.75.75,0,0,1,.75-.75H22.14L12.009,1.789,1.878,11.5H3.759a.75.75,0,0,1,.75.75v10a.253.253,0,0,0,.25.25h3.25v-5.75A1.752,1.752,0,0,1,9.759,15h4.5a1.752,1.752,0,0,1,1.75,1.75Z" transform="translate(-0.009 0.001)" fill="#1a1a1a"/>
</svg>
