<svg id="home_icon_s" xmlns="http://www.w3.org/2000/svg" width="24" height="23.999" viewBox="0 0 24 23.999">
  <path id="Path_1226" data-name="Path 1226" d="M23.619,10.848,12.519.208a.75.75,0,0,0-1.038,0L.37,10.859a1.267,1.267,0,0,0-.37.89A1.252,1.252,0,0,0,1.25,13H3v9.5A1.5,1.5,0,0,0,4.5,24H8.75a.75.75,0,0,0,.75-.75v-6.5a.251.251,0,0,1,.25-.25h4.5a.251.251,0,0,1,.25.25v6.5a.75.75,0,0,0,.75.75H19.5A1.5,1.5,0,0,0,21,22.5V13h1.75A1.252,1.252,0,0,0,24,11.749,1.277,1.277,0,0,0,23.619,10.848Z" transform="translate(0 0.001)" fill="#00b0c4"/>
</svg>
