<svg id="invoice-icon" xmlns="http://www.w3.org/2000/svg" width="17.338" height="20" viewBox="0 0 17.338 20">
  <defs>
    <style>
      .cls-1 {
        fill: #00b0c4;
      }
    </style>
  </defs>
  <path id="Path_1451" data-name="Path 1451" class="cls-1" d="M47.032,9.042a4.375,4.375,0,1,0,4.375,4.375A4.38,4.38,0,0,0,47.032,9.042Zm-.1,3.995.4.124a1,1,0,0,1,.7.954v.135a1,1,0,0,1-.792.978v.105a.333.333,0,1,1-.667,0v-.195a1,1,0,0,1-.542-.888.333.333,0,1,1,.667,0,.333.333,0,0,0,.667,0v-.135a.332.332,0,0,0-.234-.318l-.4-.124a1,1,0,0,1-.7-.954v-.135a1,1,0,0,1,.667-.943V11.5a.333.333,0,0,1,.667,0v.141a1,1,0,0,1,.667.943.333.333,0,1,1-.667,0,.333.333,0,0,0-.667,0v.135A.332.332,0,0,0,46.933,13.036ZM39.366,8.458H37.491a.333.333,0,0,1-.333-.333V6.667a.333.333,0,0,1,.333-.333h1.875a.333.333,0,0,1,.333.333V8.125A.333.333,0,0,1,39.366,8.458Zm6.078-5.25V1a.333.333,0,0,1,.569-.236l2.546,2.542a.333.333,0,0,1-.236.569H46.111A.667.667,0,0,1,45.444,3.208ZM39.7,9.458v1.458a.333.333,0,0,1-.333.333H37.491a.333.333,0,0,1-.333-.333V9.458a.333.333,0,0,1,.333-.333h1.875a.333.333,0,0,1,.333.333Zm.667-1.333V6.667a.333.333,0,0,1,.333-.333h2a.333.333,0,0,1,.333.333V8.125a.333.333,0,0,1-.333.333h-2A.333.333,0,0,1,40.366,8.125Zm0,2.792V9.458a.333.333,0,0,1,.333-.333h2a.333.333,0,0,1,.333.333v1.458a.333.333,0,0,1-.333.333h-2A.333.333,0,0,1,40.366,10.917Zm5.875-4.25V8.125a.333.333,0,0,1-.333.333H44.032a.333.333,0,0,1-.333-.333V6.667a.333.333,0,0,1,.333-.333h1.875A.333.333,0,0,1,46.241,6.667ZM42.11,12.322a.333.333,0,0,0-.325-.405H37.491a1,1,0,0,1-1-1V6.667a1,1,0,0,1,1-1h8.417a1,1,0,0,1,1,1V8.046a.333.333,0,0,0,.321.333,5.008,5.008,0,0,1,1.637.341.334.334,0,0,0,.458-.309V4.875a.333.333,0,0,0-.333-.333h-2.88a1.333,1.333,0,0,1-1.333-1.333V.333A.333.333,0,0,0,44.444,0H35.4a1.333,1.333,0,0,0-1.333,1.333V18.667A1.333,1.333,0,0,0,35.4,20H47.986a1.335,1.335,0,0,0,1.333-1.333v-.243a.333.333,0,0,0-.453-.311,5.049,5.049,0,0,1-6.756-5.791Zm-5.286,1.095h3.25a.333.333,0,1,1,0,.667h-3.25a.333.333,0,1,1,0-.667Zm4.083,3.167H36.824a.333.333,0,1,1,0-.667h4.083a.333.333,0,1,1,0,.667Z" transform="translate(-34.069)"/>
</svg>
