<svg id="jpg_icon" xmlns="http://www.w3.org/2000/svg" width="16.759" height="22" viewBox="0 0 16.759 22">
  <path id="Path_1341" data-name="Path 1341" d="M147.739,387.789h.992V388.9c0,.237-.112.363-.317.363a.614.614,0,0,1-.463-.288l-.529.625a1.369,1.369,0,0,0,1.075.433,1.065,1.065,0,0,0,1.2-1.192v-1.792h-1.963Z" transform="translate(-143.709 -370.416)" fill="#2862bd"/>
  <path id="Path_1342" data-name="Path 1342" d="M217.2,387.043h-1.4v2.917h.983v-.717h.421c.813,0,1.329-.425,1.329-1.1S218.01,387.043,217.2,387.043Zm-.063,1.442h-.358V387.8h.358c.271,0,.4.129.4.342S217.406,388.485,217.135,388.485Z" transform="translate(-209.142 -370.412)" fill="#2862bd"/>
  <path id="Path_1343" data-name="Path 1343" d="M289.259,386.288a.831.831,0,0,1,.654.321l.629-.554a1.655,1.655,0,0,0-1.333-.563,1.529,1.529,0,1,0-.021,3.051,2.357,2.357,0,0,0,1.271-.371v-1.233h-.854v.738a.917.917,0,0,1-.358.071.73.73,0,0,1,.012-1.459Z" transform="translate(-277.824 -368.928)" fill="#2862bd"/>
  <path id="Path_1344" data-name="Path 1344" d="M77.758,4.434,73.358,0H61V22H77.758ZM62.289,20.711V1.289H72.42V5.338h4.048V20.711ZM73.71,2.184,75.56,4.049H73.71Z" transform="translate(-61)" fill="#2862bd"/>
  <path id="Path_1345" data-name="Path 1345" d="M236.64,200.07a.645.645,0,1,0-.645-.645A.652.652,0,0,0,236.64,200.07Z" transform="translate(-228.476 -190.24)" fill="#2862bd"/>
  <path id="Path_1346" data-name="Path 1346" d="M118.836,153.859v8.687h11.788v-8.687Zm10.5,1.289v3.537l-2.516-2.288-2.653,1.713-2.246-2.162-1.794,1.235v-2.036h9.21Zm-9.21,3.6,1.658-1.142,1.269,1.222-2.928,1.889Zm1.543,2.508,5.017-3.238,2.65,2.41v.829Z" transform="translate(-116.351 -147.248)" fill="#2862bd"/>
</svg>
