<svg id="lifestyle_icon" xmlns="http://www.w3.org/2000/svg" width="17.227" height="20" viewBox="0 0 17.227 20">
  <path id="Path_1298" data-name="Path 1298" d="M284.4,5.911h0a.389.389,0,0,0,.466-.3l.377-1.677a.39.39,0,1,0-.761-.172L284.1,5.444A.391.391,0,0,0,284.4,5.911Z" transform="translate(-274.384 -3.327)" fill="#00b0c4"/>
  <path id="Path_1299" data-name="Path 1299" d="M220.785,2.052a.39.39,0,1,0,.66-.417L220.528.182a.39.39,0,1,0-.66.417Z" transform="translate(-212.608 0)" fill="#00b0c4"/>
  <path id="Path_1300" data-name="Path 1300" d="M325.309,33.774a.388.388,0,0,0,.208-.061l1.452-.919a.39.39,0,0,0-.417-.66l-1.452.919a.391.391,0,0,0,.209.721Z" transform="translate(-313.613 -30.821)" fill="#00b0c4"/>
  <path id="Path_1301" data-name="Path 1301" d="M52.034,67.63l-2.47-1.065L48.771,63.6a4.329,4.329,0,0,0,2.367-2.173,3.654,3.654,0,0,0,.091-3.02.211.211,0,0,0-.009-.021l-.027-.063-1.7-3.8a.39.39,0,0,0-.457-.218l-3.733,1,.057-.553a.391.391,0,0,0-.285-.417L43.856,54a.39.39,0,0,0-.48.273l0,.011a.391.391,0,0,0,.275.469l.9.249-.167,1.611a3.887,3.887,0,0,0-3.566.19,3.151,3.151,0,0,1-2.978.056L39.3,53.593l.985.264a.391.391,0,0,0,.2-.755l-1.306-.351a.391.391,0,0,0-.457.218l-1.7,3.805a3.652,3.652,0,0,0,.055,3.1,4.331,4.331,0,0,0,2.368,2.175l-.792,2.961-2.471,1.064a1.088,1.088,0,0,0,.175,2.077l.007,0,3.454.926.006,0a1.38,1.38,0,0,0,.337.043,1.055,1.055,0,0,0,.9-.462,1.124,1.124,0,0,0-.048-1.29l-1.608-2.159.792-2.961a4.2,4.2,0,0,0,.693.057,4.332,4.332,0,0,0,2.444-.755c.063-.043.125-.089.184-.135a3.729,3.729,0,0,0,1.515,1.787,4.375,4.375,0,0,0,2.3.652,4.211,4.211,0,0,0,.684-.056l.792,2.961L47.2,68.925a1.126,1.126,0,0,0-.05,1.29,1.056,1.056,0,0,0,.9.463,1.386,1.386,0,0,0,.336-.043l.007,0,3.454-.927.007,0a1.087,1.087,0,0,0,.176-2.076ZM47.4,58.353a3.761,3.761,0,0,0-2.356-.508l.177-1.707,3.7-.992,1.457,3.264A3.148,3.148,0,0,1,47.4,58.353Z" transform="translate(-35.496 -50.679)" fill="#00b0c4"/>
  <path id="Path_1302" data-name="Path 1302" d="M193.071,73.761a.39.39,0,0,0,.377-.289.4.4,0,0,0,.013-.1.39.39,0,0,0-.39-.391h0a.389.389,0,0,0-.376.29.407.407,0,0,0-.013.1A.391.391,0,0,0,193.071,73.761Z" transform="translate(-186.54 -70.129)" fill="#00b0c4"/>
</svg>
