<svg xmlns="http://www.w3.org/2000/svg" width="127.399" height="65" viewBox="0 0 127.399 65">
  <g id="Component_49_2" data-name="Component 49 – 2" transform="translate(0)">
    <g id="Group_10" data-name="Group 10" transform="translate(0 8.293)">
      <g id="Group_9" data-name="Group 9">
        <path id="Path_24" data-name="Path 24" d="M7.353,85.082s7.743-.646,8.233,5.166c0,0-.147,2.186-.343,3.3,0,0-.1,1.118-.147,2.36a20.541,20.541,0,0,0-.025,2.434.726.726,0,0,1-.76.646L6.667,97.153a5.776,5.776,0,0,1-2.058-1.441,7.374,7.374,0,0,1-1.666-5.936l-5.317-.795s-1.593,8.941,6.69,12.989l14.335,3.452a2.021,2.021,0,0,1,1.4,2.633s-.172,1.54-2.867,1.49l-2.6-.671-1.225,4.967,3.725.894a7.355,7.355,0,0,0,7.768-4.172s2.352-6.234-2.892-9.09c0,0-2.573-1.143-1.617-6.308,0,0,1.838-6.755-1.813-10.754,0,0-4.631-5.762-11.884-4.719Z" transform="translate(11.546 -70.205)" fill="#00b0c4"/>
        <path id="Path_25" data-name="Path 25" d="M-16.667,42.737s-9.41-9.363-20.951-.969c0,0-9.311,7.9-3.7,19.025a16.076,16.076,0,0,0,8.135,7.65l12.154,3.328-1.1,4.967-12.62-3.08s-8.9-3.229-12.3-12.319a22.043,22.043,0,0,1,4.558-22.154,20.666,20.666,0,0,1,19.75-5.837s6.763,2.086,9.875,5.539Z" transform="translate(48.284 -32.827)" fill="#ff355a"/>
        <ellipse id="Ellipse_13" data-name="Ellipse 13" cx="2.695" cy="2.732" rx="2.695" ry="2.732" transform="translate(15.983 9.414)" fill="#00b0c4"/>
        <ellipse id="Ellipse_14" data-name="Ellipse 14" cx="2.695" cy="2.732" rx="2.695" ry="2.732" transform="translate(9.147 16.418)" fill="#00b0c4"/>
        <ellipse id="Ellipse_15" data-name="Ellipse 15" cx="2.695" cy="2.732" rx="2.695" ry="2.732" transform="translate(31.029 5.465)" fill="#ff355a"/>
        <ellipse id="Ellipse_16" data-name="Ellipse 16" cx="2.695" cy="2.732" rx="2.695" ry="2.732" transform="translate(31.029 5.465)" fill="#13327c" opacity="0.5" style="isolation: isolate"/>
        <ellipse id="Ellipse_17" data-name="Ellipse 17" cx="2.695" cy="2.732" rx="2.695" ry="2.732" transform="translate(15.983 9.414)" fill="#13327c" opacity="0.5" style="isolation: isolate"/>
        <ellipse id="Ellipse_18" data-name="Ellipse 18" cx="2.695" cy="2.732" rx="2.695" ry="2.732" transform="translate(9.147 16.418)" fill="#13327c" opacity="0.5" style="isolation: isolate"/>
      </g>
      <path id="Path_26" data-name="Path 26" d="M66.814,229.457l-2.181-.522a2.681,2.681,0,0,1-1.96-3.229h0a2.446,2.446,0,0,1,2.989-1.838l2.254.621Z" transform="translate(-40.685 -185.546)" fill="#13327c" opacity="0.5" style="isolation: isolate"/>
      <path id="Path_27" data-name="Path 27" d="M83.928,232.222l2.083.5a2.631,2.631,0,0,0,3.186-1.987h0a2.363,2.363,0,0,0-1.887-2.881l-2.279-.6Z" transform="translate(-57.8 -188.311)" fill="#13327c" opacity="0.5" style="isolation: isolate"/>
    </g>
    <path id="Path_28" data-name="Path 28" d="M514.318,156.659" transform="translate(-403.135 -123.563)" fill="#ff355a"/>
    <text id="care" transform="translate(39.399 53)" fill="#00b0c4" font-size="52" font-family="Dosis-Bold, Dosis" font-weight="700" letter-spacing="-0.025em"><tspan x="0" y="0">care</tspan></text>
    <text id="Agna" transform="translate(43.305 18.786)" fill="#ff355a" font-size="15" font-family="SegoeUI, Segoe UI"><tspan x="0" y="0">Agna</tspan></text>
  </g>
</svg>
