<svg id="medical_record_icon" xmlns="http://www.w3.org/2000/svg" width="24.5" height="24.5" viewBox="0 0 24.5 24.5">
  <path id="Path_1256" data-name="Path 1256" d="M9.143,21H2.736A2.745,2.745,0,0,1,0,18.25V2.75A2.745,2.745,0,0,1,2.736,0H14.177a2.745,2.745,0,0,1,2.736,2.75V8.84c-.034,1.332,1.495,12.11-7.77,12.16Z" fill="#00b0c4"/>
  <path id="Path_1259" data-name="Path 1259" d="M71.25,86.833h-6.5a.75.75,0,0,1,0-1.5h6.5a.75.75,0,0,1,0,1.5Z" transform="translate(-61 -73.333)" fill="#fff"/>
  <path id="Path_1286" data-name="Path 1286" d="M69.25,86.833h-4.5a.75.75,0,0,1,0-1.5h4.5a.75.75,0,0,1,0,1.5Z" transform="translate(-61 -70.333)" fill="#fff"/>
  <path id="Path_1285" data-name="Path 1285" d="M7.365,28.7a2.151,2.151,0,0,0-1.6-.7,2.013,2.013,0,0,0-1.257.434A2.572,2.572,0,0,0,4,28.965a2.57,2.57,0,0,0-.508-.531A2.012,2.012,0,0,0,2.235,28a2.151,2.151,0,0,0-1.6.7A2.5,2.5,0,0,0,0,30.4a2.978,2.978,0,0,0,.793,1.949A16.918,16.918,0,0,0,2.78,34.218c.275.235.587.5.911.784a.47.47,0,0,0,.618,0c.324-.283.636-.549.911-.784a16.911,16.911,0,0,0,1.986-1.864A2.977,2.977,0,0,0,8,30.4,2.5,2.5,0,0,0,7.365,28.7Z" transform="translate(3 -25)" fill="#fff"/>
  <path id="Path_1253" data-name="Path 1253" d="M241.167,247.667a6.5,6.5,0,1,1,6.5-6.5A6.508,6.508,0,0,1,241.167,247.667Z" transform="translate(-223.667 -223.667)" fill="#00b0c4" stroke="#fff" stroke-width="1"/>
  <path id="Path_1254" data-name="Path 1254" d="M358.083,305.667a.75.75,0,0,1-.75-.75v-5.5a.75.75,0,0,1,1.5,0v5.5A.75.75,0,0,1,358.083,305.667Z" transform="translate(-340.583 -284.667)" fill="#fff"/>
  <path id="Path_1255" data-name="Path 1255" d="M304.917,358.833h-5.5a.75.75,0,0,1,0-1.5h5.5a.75.75,0,0,1,0,1.5Z" transform="translate(-284.667 -340.583)" fill="#fff"/>
</svg>
