<svg id="medication_icon" xmlns="http://www.w3.org/2000/svg" width="20" height="20" viewBox="0 0 20 20">
  <g id="Group_1187" data-name="Group 1187" transform="translate(6.628 0)">
    <g id="Group_1186" data-name="Group 1186" transform="translate(0 0)">
      <path id="Path_1266" data-name="Path 1266" d="M2017.227,3788.166a5.294,5.294,0,0,0-7.467,0l-4.36,4.355,4.947,4.942a5.752,5.752,0,0,1,6.029-.9l.85-.927A5.3,5.3,0,0,0,2017.227,3788.166Z" transform="translate(-2005.4 -3786.625)" fill="#00b0c4"/>
    </g>
  </g>
  <g id="Group_1189" data-name="Group 1189" transform="translate(0 6.714)">
    <g id="Group_1188" data-name="Group 1188" transform="translate(0 0)">
      <path id="Path_1267" data-name="Path 1267" d="M1973.281,3835.042l-4.947-4.941-4.267,4.262a5.3,5.3,0,0,0,7.5,7.506l.866-.865a5.732,5.732,0,0,1-.479-2.3A5.955,5.955,0,0,1,1973.281,3835.042Z" transform="translate(-1962.525 -3830.1)" fill="#00b0c4"/>
    </g>
  </g>
  <g id="Group_1191" data-name="Group 1191" transform="translate(10.617 10.683)">
    <g id="Group_1190" data-name="Group 1190" transform="translate(0 0)">
      <path id="Path_1268" data-name="Path 1268" d="M2031.2,3860.418a4.675,4.675,0,0,0,4.112,4.633V3855.8A4.661,4.661,0,0,0,2031.2,3860.418Z" transform="translate(-2031.2 -3855.8)" fill="#00b0c4"/>
    </g>
  </g>
  <g id="Group_1193" data-name="Group 1193" transform="translate(15.888 10.683)">
    <g id="Group_1192" data-name="Group 1192" transform="translate(0 0)">
      <path id="Path_1269" data-name="Path 1269" d="M2065.3,3855.8v9.251a4.658,4.658,0,0,0,0-9.251Z" transform="translate(-2065.3 -3855.8)" fill="#00b0c4"/>
    </g>
  </g>
</svg>
