<svg id="money_icon" xmlns="http://www.w3.org/2000/svg" xmlns:xlink="http://www.w3.org/1999/xlink" width="14.4" height="16" viewBox="0 0 14.4 16">
  <defs>
    <clipPath id="clip-path">
      <path id="Path_399" data-name="Path 399" d="M14.2-10.8h1.6v-9.6h-8v1.6h6.4Zm0,1.6v2.4a.8.8,0,0,1-.806.8H3.806a.8.8,0,0,1-.569-.233A.8.8,0,0,1,3-6.8L3-18a.8.8,0,0,1,.806-.8H6.2v-2.4A.8.8,0,0,1,7-22h9.6a.8.8,0,0,1,.8.8V-10a.8.8,0,0,1-.8.8Zm-8-1.6v1.6H7.8v.8H9.4v-.8h.4a2,2,0,0,0,2-2,2,2,0,0,0-2-2H7.4a.4.4,0,0,1-.4-.4.4.4,0,0,1,.4-.4H11v-1.6H9.4v-.8H7.8v.8H7.4a2,2,0,0,0-2,2,2,2,0,0,0,2,2H9.8a.4.4,0,0,1,.4.4.4.4,0,0,1-.4.4Z" transform="translate(-3 22)" fill="#b1b1b1"/>
    </clipPath>
    <clipPath id="clip-path-2">
      <path id="Path_398" data-name="Path 398" d="M-1336,1156H1659.2V-852H-1336Z" transform="translate(1336 852)" fill="#b1b1b1"/>
    </clipPath>
  </defs>
  <g id="Group_737" data-name="Group 737" clip-path="url(#clip-path)">
    <g id="Group_736" data-name="Group 736" transform="translate(-1071.198 -663.999)" clip-path="url(#clip-path-2)">
      <path id="Path_397" data-name="Path 397" d="M-2-27H20.4V-3H-2Z" transform="translate(1069.198 686.999)" fill="#b1b1b1"/>
    </g>
  </g>
</svg>
