<svg xmlns="http://www.w3.org/2000/svg" xmlns:xlink="http://www.w3.org/1999/xlink" width="24" height="24" viewBox="0 0 24 24">
  <defs>
    <clipPath id="clip-path">
      <path id="Path_360" data-name="Path 360" d="M7.868-21.5a5.368,5.368,0,0,1,5.368,5.368v5.368H7.868A5.368,5.368,0,0,1,2.5-16.132,5.368,5.368,0,0,1,7.868-21.5Zm0,13.263h5.368v5.368A5.368,5.368,0,0,1,7.868,2.5,5.368,5.368,0,0,1,2.5-2.868,5.368,5.368,0,0,1,7.868-8.237ZM21.132-21.5A5.368,5.368,0,0,1,26.5-16.132a5.368,5.368,0,0,1-5.368,5.368H15.763v-5.368A5.368,5.368,0,0,1,21.132-21.5ZM15.763-8.237h5.368A5.368,5.368,0,0,1,26.5-2.868,5.368,5.368,0,0,1,21.132,2.5a5.368,5.368,0,0,1-5.368-5.368Z" transform="translate(-2.5 21.5)" fill="#26c6da"/>
    </clipPath>
    <clipPath id="clip-path-2">
      <path id="Path_359" data-name="Path 359" d="M-352,968.526H4377.262V-2202H-352Z" transform="translate(352 2202)" fill="#26c6da"/>
    </clipPath>
  </defs>
  <g id="Group_705" data-name="Group 705" transform="translate(-2.5 21.5)">
    <g id="Group_704" data-name="Group 704" transform="translate(2.5 -21.5)" clip-path="url(#clip-path)">
      <g id="Group_703" data-name="Group 703" transform="translate(-447.789 -2754.315)" clip-path="url(#clip-path-2)">
        <path id="Path_358" data-name="Path 358" d="M-2.5-26.5H34.132V10.132H-2.5Z" transform="translate(443.974 2774.5)" fill="#26c6da"/>
      </g>
    </g>
  </g>
</svg>
