<svg id="notification-icon" xmlns="http://www.w3.org/2000/svg" xmlns:xlink="http://www.w3.org/1999/xlink" width="15" height="17.917" viewBox="0 0 15 17.917">
  <defs>
    <clipPath id="clip-path">
      <path id="Path_110" data-name="Path 110" d="M4.667-10.667H16.333v-5.808A5.846,5.846,0,0,0,10.5-22.333a5.846,5.846,0,0,0-5.833,5.859ZM10.5-24A7.513,7.513,0,0,1,18-16.474V-9H3v-7.474A7.513,7.513,0,0,1,10.5-24ZM8.417-8.167h4.167A2.083,2.083,0,0,1,10.5-6.083,2.083,2.083,0,0,1,8.417-8.167Z" transform="translate(-3 24)" fill="#1a1a1a"/>
    </clipPath>
    <clipPath id="clip-path-2">
      <path id="Path_109" data-name="Path 109" d="M-2876,502.667H244V-1589H-2876Z" transform="translate(2876 1589)" fill="#1a1a1a"/>
    </clipPath>
  </defs>
  <g id="Group_65" data-name="Group 65" clip-path="url(#clip-path)">
    <g id="Group_64" data-name="Group 64" transform="translate(-2399.167 -1304.167)" clip-path="url(#clip-path-2)">
      <path id="Path_108" data-name="Path 108" d="M-2-29H21.333V-2.75H-2Z" transform="translate(2397 1329)" fill="#1a1a1a"/>
    </g>
  </g>
</svg>
