<svg xmlns="http://www.w3.org/2000/svg" xmlns:xlink="http://www.w3.org/1999/xlink" width="13.714" height="18" viewBox="0 0 13.714 18">
  <defs>
    <clipPath id="clip-path">
      <path id="Path_484" data-name="Path 484" d="M4-4a6.857,6.857,0,0,1,6.857-6.857A6.857,6.857,0,0,1,17.714-4Zm6.857-7.714a5.141,5.141,0,0,1-5.143-5.143A5.141,5.141,0,0,1,10.857-22,5.141,5.141,0,0,1,16-16.857,5.141,5.141,0,0,1,10.857-11.714Z" transform="translate(-4 22)" fill="#bababc"/>
    </clipPath>
    <clipPath id="clip-path-2">
      <path id="Path_483" data-name="Path 483" d="M-2704,1695.428H505.143V-456H-2704Z" transform="translate(2704 456)" fill="#bababc"/>
    </clipPath>
  </defs>
  <g id="Group_919" data-name="Group 919" transform="translate(-4 22)">
    <g id="Group_918" data-name="Group 918" transform="translate(4 -22)" clip-path="url(#clip-path)">
      <g id="Group_917" data-name="Group 917" transform="translate(-2321.143 -372)" clip-path="url(#clip-path-2)">
        <path id="Path_482" data-name="Path 482" d="M-1-27H21.286V-.429H-1Z" transform="translate(2317.857 394.714)" fill="#bababc"/>
      </g>
    </g>
  </g>
</svg>
