<svg id="png_icon" xmlns="http://www.w3.org/2000/svg" width="16.759" height="22" viewBox="0 0 16.759 22">
  <defs>
    <style>
      .cls-1 {
        fill: #528f1c;
      }
    </style>
  </defs>
  <path id="Path_1335" data-name="Path 1335" class="cls-1" d="M147.486,387.043h-1.4v2.917h.984v-.717h.421c.813,0,1.329-.425,1.329-1.1S148.3,387.043,147.486,387.043Zm-.062,1.442h-.358V387.8h.358c.271,0,.4.129.4.342S147.695,388.485,147.424,388.485Z" transform="translate(-142.426 -370.412)"/>
  <path id="Path_1336" data-name="Path 1336" class="cls-1" d="M221.511,388.368l-1.109-1.325h-.808v2.917h.958v-1.325l1.109,1.325h.808v-2.917h-.958Z" transform="translate(-212.779 -370.412)"/>
  <path id="Path_1337" data-name="Path 1337" class="cls-1" d="M298.973,386.288a.831.831,0,0,1,.654.321l.629-.554a1.656,1.656,0,0,0-1.334-.563,1.529,1.529,0,1,0-.021,3.051,2.357,2.357,0,0,0,1.271-.371v-1.233h-.854v.738a.919.919,0,0,1-.358.071.73.73,0,0,1,.012-1.459Z" transform="translate(-287.121 -368.928)"/>
  <path id="Path_1338" data-name="Path 1338" class="cls-1" d="M73.358,0H61V22H77.758V4.434ZM62.289,20.711V1.289H72.42V5.338h4.048V20.711ZM73.71,2.184,75.56,4.049H73.71Z" transform="translate(-61)"/>
  <path id="Path_1339" data-name="Path 1339" class="cls-1" d="M236.64,200.066a.645.645,0,1,0-.645-.645A.652.652,0,0,0,236.64,200.066Z" transform="translate(-228.476 -190.236)"/>
  <path id="Path_1340" data-name="Path 1340" class="cls-1" d="M118.836,162.542h11.788v-8.687H118.836Zm1.289-3.8,1.658-1.142,1.269,1.222-2.927,1.889Zm1.542,2.508,5.017-3.238,2.65,2.41v.829Zm7.668-6.109v3.538l-2.516-2.288-2.653,1.713-2.246-2.162-1.794,1.236v-2.036Z" transform="translate(-116.351 -147.244)"/>
</svg>
