<svg id="policy_icon" xmlns="http://www.w3.org/2000/svg" width="20" height="17.931" viewBox="0 0 20 17.931">
  <path id="Path_1280" data-name="Path 1280" d="M11.034,356.375V355H0v1.381a2.278,2.278,0,0,0,2.261,2.283h9.886c-.095-.086-.186-.162-.273-.248A2.876,2.876,0,0,1,11.034,356.375Z" transform="translate(0 -340.733)" fill="#00b0c4"/>
  <path id="Path_1281" data-name="Path 1281" d="M163.787,83.334l1.6,1.1,1.607-1.1a2.036,2.036,0,0,0,.789-1.509V79.554l-2.392-1.183L163,79.551v2.275A2.034,2.034,0,0,0,163.787,83.334Zm.36-2.147a.3.3,0,0,1,.427,0l.481.486,1.157-1.157a.3.3,0,1,1,.427.427l-1.372,1.372a.3.3,0,0,1-.213.089h0a.3.3,0,0,1-.214-.091l-.694-.7A.3.3,0,0,1,164.147,81.187Z" transform="translate(-155.974 -76.027)" fill="#00b0c4"/>
  <path id="Path_1282" data-name="Path 1282" d="M390.633,24h-.01A1.64,1.64,0,0,0,389,25.628V28.4h3.233V25.622A1.615,1.615,0,0,0,390.633,24Z" transform="translate(-372.233 -24)" fill="#00b0c4"/>
  <path id="Path_1283" data-name="Path 1283" d="M71.735,24a1.512,1.512,0,0,0-1.521,1.5l-.089,12.165h8.314a.314.314,0,0,1,.3.316v1.663a2.283,2.283,0,0,0,2.267,2.289h.008a2.268,2.268,0,0,0,2.251-2.284V25.628A2.31,2.31,0,0,1,83.98,24Zm1.79,3.335a.293.293,0,0,1,.159-.271l2.7-1.328a.3.3,0,0,1,.263,0l2.707,1.332a.293.293,0,0,1,.16.271V29.8a2.63,2.63,0,0,1-1.052,2.007l-1.773,1.215a.3.3,0,0,1-.169.053.294.294,0,0,1-.168-.053l-1.778-1.215A2.632,2.632,0,0,1,73.525,29.8Zm7.284,8.949H72.533a.3.3,0,1,1,0-.6h8.276a.3.3,0,1,1,0,.6Zm0-1.595H72.533a.3.3,0,1,1,0-.6h8.276a.3.3,0,1,1,0,.6Z" transform="translate(-67.102 -24)" fill="#00b0c4"/>
</svg>
