<svg id="profile_icon" xmlns="http://www.w3.org/2000/svg" width="22.936" height="24" viewBox="0 0 22.936 24">
  <path id="Path_109" data-name="Path 109" d="M738.834,30.232a6.552,6.552,0,1,0,6.548,6.556h0A6.56,6.56,0,0,0,738.834,30.232Zm0,11.665a5.265,5.265,0,0,1-5.112-5.113,5.113,5.113,0,1,1,10.225,0A5.265,5.265,0,0,1,738.834,41.9Z" transform="translate(-727.373 -30.232)" fill="#1a1a1a"/>
  <path id="Path_110" data-name="Path 110" d="M661.8,311.481a20.009,20.009,0,0,0-20.674,0A2.455,2.455,0,0,0,640,313.559v4.249h1.439v-4.249a.848.848,0,0,1,.561-.887,18.337,18.337,0,0,1,18.938,0,1.037,1.037,0,0,1,.559.887v4.249h1.44v-4.249A2.46,2.46,0,0,0,661.8,311.481Z" transform="translate(-639.996 -293.808)" fill="#1a1a1a"/>
</svg>
