<svg id="profile_icon" xmlns="http://www.w3.org/2000/svg" width="20" height="20" viewBox="0 0 20 20">
  <g id="Group_1196" data-name="Group 1196">
    <path id="Path_1287" data-name="Path 1287" d="M18.242,0H1.758A1.76,1.76,0,0,0,0,1.758v2.93H20V1.758A1.76,1.76,0,0,0,18.242,0ZM2.969,2.93a.586.586,0,1,1,.586-.586A.586.586,0,0,1,2.969,2.93Zm2.344,0A.586.586,0,1,1,5.9,2.344.586.586,0,0,1,5.313,2.93Zm2.344,0a.586.586,0,1,1,.586-.586A.586.586,0,0,1,7.656,2.93Z" fill="#00b0c4"/>
  </g>
  <g id="Group_1197" data-name="Group 1197" transform="translate(0 5.859)">
    <circle id="Ellipse_198" data-name="Ellipse 198" cx="0.977" cy="0.977" r="0.977" transform="translate(4.141 2.969)" fill="#00b0c4"/>
    <path id="Path_1288" data-name="Path 1288" d="M276,406h1.172v1.172H276Z" transform="translate(-265.219 -396)" fill="#00b0c4"/>
    <path id="Path_1289" data-name="Path 1289" d="M396,406h1.172v1.172H396Z" transform="translate(-380.531 -396)" fill="#00b0c4"/>
    <path id="Path_1290" data-name="Path 1290" d="M87.758,306A1.76,1.76,0,0,0,86,307.758v.2h3.516v-.2A1.76,1.76,0,0,0,87.758,306Z" transform="translate(-82.641 -299.906)" fill="#00b0c4"/>
    <path id="Path_1291" data-name="Path 1291" d="M0,150v12.383a1.76,1.76,0,0,0,1.758,1.758H18.242A1.76,1.76,0,0,0,20,162.383V150Zm7.461,11.563H2.773a.586.586,0,0,1,0-1.172H7.461a.586.586,0,0,1,0,1.172Zm.586-2.93a.586.586,0,0,1-.586.586H2.773a.586.586,0,0,1-.586-.586v-.781a2.929,2.929,0,0,1,1.342-2.46,2.148,2.148,0,1,1,3.175,0,2.929,2.929,0,0,1,1.342,2.46Zm5.078,3.125a.586.586,0,0,1-.586.586H10.2a.586.586,0,0,1-.586-.586v-2.344a.586.586,0,0,1,.586-.586h2.344a.586.586,0,0,1,.586.586Zm4.688,0a.586.586,0,0,1-.586.586H14.883a.586.586,0,0,1-.586-.586v-2.344a.586.586,0,0,1,.586-.586h2.344a.586.586,0,0,1,.586.586Zm-.586-4.1H10.2a.586.586,0,0,1,0-1.172h7.031a.586.586,0,0,1,0,1.172Zm0-2.344H10.2a.586.586,0,0,1,0-1.172h7.031a.586.586,0,0,1,0,1.172Zm0-2.344H10.2a.586.586,0,0,1,0-1.172h7.031a.586.586,0,0,1,0,1.172Z" transform="translate(0 -150)" fill="#00b0c4"/>
  </g>
</svg>
