<svg id="rating_icon" xmlns="http://www.w3.org/2000/svg" width="20" height="19.143" viewBox="0 0 20 19.143">
  <path id="Path_1271" data-name="Path 1271" d="M65.3,21.248l-5.224-.485L58,15.945a.419.419,0,0,0-.769,0l-2.075,4.819-5.224.485a.419.419,0,0,0-.238.731l3.942,3.463L52.479,30.56a.419.419,0,0,0,.622.452l4.511-2.679,4.511,2.679a.419.419,0,0,0,.622-.452l-1.154-5.118,3.942-3.463A.419.419,0,0,0,65.3,21.248Z" transform="translate(-47.612 -15.507)" fill="#00b0c4"/>
  <g id="Group_1195" data-name="Group 1195">
    <path id="Path_1272" data-name="Path 1272" d="M90.173,11.243c.266.37,1.018,1.959,1.448,2.884a.145.145,0,0,1-.232.167c-.742-.7-2.01-1.918-2.276-2.288a.653.653,0,1,1,1.06-.763Z" transform="translate(-85.514 -10.971)" fill="#00b0c4"/>
    <path id="Path_1273" data-name="Path 1273" d="M356.747,11.243c-.266.37-1.018,1.959-1.448,2.884a.145.145,0,0,0,.232.167c.742-.7,2.01-1.918,2.276-2.288a.653.653,0,1,0-1.06-.763Z" transform="translate(-341.406 -10.971)" fill="#00b0c4"/>
    <path id="Path_1274" data-name="Path 1274" d="M418,283.224c-.433-.141-2.175-.375-3.188-.5a.145.145,0,0,0-.089.271c.893.494,2.438,1.332,2.871,1.473a.653.653,0,0,0,.4-1.242Z" transform="translate(-398.449 -272.105)" fill="#00b0c4"/>
    <path id="Path_1275" data-name="Path 1275" d="M.451,283.224c.433-.141,2.175-.375,3.188-.5a.145.145,0,0,1,.089.271c-.893.494-2.438,1.332-2.871,1.473a.653.653,0,0,1-.405-1.242Z" transform="translate(0 -272.105)" fill="#00b0c4"/>
    <path id="Path_1276" data-name="Path 1276" d="M239.794,403.008c0-.456.318-2.184.51-3.187a.145.145,0,0,1,.285,0c.192,1,.51,2.731.51,3.187a.653.653,0,0,1-1.306,0Z" transform="translate(-230.427 -384.518)" fill="#00b0c4"/>
  </g>
  <path id="Path_1277" data-name="Path 1277" d="M58.751,17.7,58,15.945a.419.419,0,0,0-.769,0l-2.075,4.819-5.224.485a.419.419,0,0,0-.238.731l3.942,3.463L52.479,30.56a.419.419,0,0,0,.622.452l.6-.357A32.5,32.5,0,0,1,58.751,17.7Z" transform="translate(-47.612 -15.507)" fill="#00b0c4"/>
</svg>
