<svg id="reschedule-icon" xmlns="http://www.w3.org/2000/svg" width="24" height="24" viewBox="0 0 24 24">
  <defs>
    <style>
      .cls-1 {
        fill: #00b0c4;
      }
    </style>
  </defs>
  <circle id="Ellipse_212" data-name="Ellipse 212" class="cls-1" cx="0.937" cy="0.937" r="0.937" transform="translate(17.156 8.906)"/>
  <path id="Path_1445" data-name="Path 1445" class="cls-1" d="M20.25,1.875H19.031V.937a.938.938,0,0,0-1.875,0v.937H12.891V.937a.937.937,0,1,0-1.875,0v.937H6.8V.937a.937.937,0,1,0-1.875,0v.937H3.75A3.754,3.754,0,0,0,0,5.625V20.25A3.754,3.754,0,0,0,3.75,24h7.172a.937.937,0,1,0,0-1.875H3.75A1.877,1.877,0,0,1,1.875,20.25V5.625A1.877,1.877,0,0,1,3.75,3.75H4.922v.938a.937.937,0,1,0,1.875,0V3.75h4.219v.938a.937.937,0,1,0,1.875,0V3.75h4.266v.938a.938.938,0,1,0,1.875,0V3.75H20.25a1.877,1.877,0,0,1,1.875,1.875v5.344a.937.937,0,1,0,1.875,0V5.625A3.754,3.754,0,0,0,20.25,1.875Z"/>
  <path id="Path_1446" data-name="Path 1446" class="cls-1" d="M275.672,270a5.672,5.672,0,1,0,5.672,5.672A5.678,5.678,0,0,0,275.672,270Zm0,9.469a3.8,3.8,0,1,1,3.8-3.8A3.8,3.8,0,0,1,275.672,279.469Z" transform="translate(-257.344 -257.344)"/>
  <path id="Path_1447" data-name="Path 1447" class="cls-1" d="M373.3,331.922h-.422v-.984a.938.938,0,1,0-1.875,0v1.922a.937.937,0,0,0,.938.938H373.3a.938.938,0,0,0,0-1.875Z" transform="translate(-353.609 -314.531)"/>
  <circle id="Ellipse_213" data-name="Ellipse 213" class="cls-1" cx="0.937" cy="0.937" r="0.937" transform="translate(13.078 8.906)"/>
  <circle id="Ellipse_214" data-name="Ellipse 214" class="cls-1" cx="0.937" cy="0.937" r="0.937" transform="translate(9 12.984)"/>
  <circle id="Ellipse_215" data-name="Ellipse 215" class="cls-1" cx="0.937" cy="0.937" r="0.937" transform="translate(4.922 8.906)"/>
  <circle id="Ellipse_216" data-name="Ellipse 216" class="cls-1" cx="0.937" cy="0.937" r="0.937" transform="translate(4.922 12.984)"/>
  <circle id="Ellipse_217" data-name="Ellipse 217" class="cls-1" cx="0.937" cy="0.937" r="0.937" transform="translate(4.922 17.063)"/>
  <circle id="Ellipse_218" data-name="Ellipse 218" class="cls-1" cx="0.937" cy="0.937" r="0.937" transform="translate(9 17.063)"/>
  <circle id="Ellipse_219" data-name="Ellipse 219" class="cls-1" cx="0.937" cy="0.937" r="0.937" transform="translate(9 8.906)"/>
</svg>
