<svg id="solid_logo" xmlns="http://www.w3.org/2000/svg" width="24.236" height="24.594" viewBox="0 0 24.236 24.594">
  <g id="Group_981" data-name="Group 981" transform="translate(5.513 0) rotate(16)">
    <g id="Group_980" data-name="Group 980" transform="translate(0 0)">
      <path id="Path_520" data-name="Path 520" d="M4.139,2.83S7.7,1.667,8.561,4.3c0,0,.172,1.027.2,1.562,0,0,.081.522.195,1.111A8.945,8.945,0,0,0,9.216,8.1a.349.349,0,0,1-.283.383H5.146A2.876,2.876,0,0,1,4.02,8.047,3.5,3.5,0,0,1,2.584,5.493L0,5.723a5.85,5.85,0,0,0,4.557,5.26h7.092a.95.95,0,0,1,.939,1.061s.087.731-1.177,1l-1.3-.022-.027,2.429h1.847a3.572,3.572,0,0,0,3.184-2.8s.423-3.148-2.348-3.884c0,0-1.332-.245-1.447-2.736,0,0,.118-3.325-2.03-4.766A6.645,6.645,0,0,0,3.2.415Z" transform="translate(4.336 4.542)" fill="#00b0c4"/>
      <path id="Path_521" data-name="Path 521" d="M13.885,3.656A7.817,7.817,0,0,0,3.952,5.537s-3.5,4.687.353,9.213A7.691,7.691,0,0,0,8.96,17.383l6.058.195L15.042,20l-6.249-.026a10.82,10.82,0,0,1-7.12-4.324A10.358,10.358,0,0,1,1.384,4.9,10.037,10.037,0,0,1,10.006,0s3.4.212,5.238,1.467Z" transform="translate(0)" fill="#00b0c4"/>
      <circle id="Ellipse_45" data-name="Ellipse 45" cx="1.297" cy="1.297" r="1.297" transform="translate(6.772 4.843)" fill="#00b0c4"/>
      <circle id="Ellipse_46" data-name="Ellipse 46" cx="1.297" cy="1.297" r="1.297" transform="translate(4.33 8.844)" fill="#00b0c4"/>
      <circle id="Ellipse_47" data-name="Ellipse 47" cx="1.297" cy="1.297" r="1.297" transform="translate(13.392 1.342)" fill="#00b0c4"/>
      <circle id="Ellipse_48" data-name="Ellipse 48" cx="1.297" cy="1.297" r="1.297" transform="translate(13.392 1.342)" fill="#00b0c4" opacity="0.5"/>
      <circle id="Ellipse_49" data-name="Ellipse 49" cx="1.297" cy="1.297" r="1.297" transform="translate(6.772 4.843)" fill="#00b0c4" opacity="0.5"/>
      <circle id="Ellipse_50" data-name="Ellipse 50" cx="1.297" cy="1.297" r="1.297" transform="translate(4.33 8.844)" fill="#00b0c4" opacity="0.5"/>
    </g>
    <path id="Path_522" data-name="Path 522" d="M2.354,2.458H1.278A1.278,1.278,0,0,1,0,1.18H0A1.18,1.18,0,0,1,1.206,0L2.331.036Z" transform="translate(12.688 17.542)" fill="#00b0c4" opacity="0.5"/>
    <path id="Path_523" data-name="Path 523" d="M.024,2.422H1.052A1.278,1.278,0,0,0,2.33,1.144h0A1.126,1.126,0,0,0,1.134.02L0,0Z" transform="translate(15.018 17.578)" fill="#00b0c4" opacity="0.5"/>
  </g>
</svg>
