<svg id="terms_icon" xmlns="http://www.w3.org/2000/svg" width="19.162" height="20" viewBox="0 0 19.162 20">
  <path id="Path_1278" data-name="Path 1278" d="M25.3,9.128H25.4q.28.005.555.035V2.36A2.363,2.363,0,0,0,23.6,0H13.36A2.363,2.363,0,0,0,11,2.36V15.933a2.363,2.363,0,0,0,2.36,2.36H20.2a6,6,0,0,1,5.1-9.165ZM19.463,3.853h3.5a.586.586,0,1,1,0,1.172h-3.5a.586.586,0,1,1,0-1.172Zm0,2.344h3.5a.586.586,0,0,1,0,1.172h-3.5a.586.586,0,0,1,0-1.172ZM17.5,14.44H14a.586.586,0,1,1,0-1.172h3.5a.586.586,0,0,1,0,1.172Zm0-2.383H14a.586.586,0,0,1,0-1.172h3.5a.586.586,0,0,1,0,1.172Zm0-2.344H14a.586.586,0,0,1,0-1.172h3.5a.586.586,0,0,1,0,1.172Zm0-2.344H14A.586.586,0,0,1,14,6.2h3.5a.586.586,0,0,1,0,1.172Zm0-2.344H14a.586.586,0,1,1,0-1.172h3.5a.586.586,0,1,1,0,1.172Zm1.382,4.1a.586.586,0,0,1,.586-.586h1.684a.586.586,0,0,1,0,1.172H19.463A.586.586,0,0,1,18.877,9.127Z" transform="translate(-11)" fill="#00b0c4"/>
  <path id="Path_1279" data-name="Path 1279" d="M260.723,264.135a4.835,4.835,0,0,0-3.382-1.454h-.088a4.868,4.868,0,1,0,3.47,1.456Zm-1.391,2.622-1.858,2.316a.586.586,0,0,1-.8.108l-1.386-1a.586.586,0,1,1,.688-.949l.934.677,1.509-1.881a.586.586,0,1,1,.914.733Z" transform="translate(-242.958 -252.419)" fill="#00b0c4"/>
</svg>
