<svg id="track_icon" xmlns="http://www.w3.org/2000/svg" xmlns:xlink="http://www.w3.org/1999/xlink" width="10" height="10" viewBox="0 0 10 10">
  <defs>
    <clipPath id="clip-path">
      <path id="Path_384" data-name="Path 384" d="M2-20.5,5.5-22l3,1.5,3.151-1.351a.25.25,0,0,1,.236.021A.25.25,0,0,1,12-21.62v8.12L8.5-12l-3-1.5L2.349-12.15a.25.25,0,0,1-.236-.021A.25.25,0,0,1,2-12.38Zm6.5,7.382v-6.294l-.033.014L5.5-20.882v6.294l.032-.014Z" transform="translate(-2 22)" fill="#fff"/>
    </clipPath>
    <clipPath id="clip-path-2">
      <path id="Path_383" data-name="Path 383" d="M-2536-8H-664V-1263H-2536Z" transform="translate(2536 1263)" fill="#fff"/>
    </clipPath>
  </defs>
  <g id="Group_721" data-name="Group 721" clip-path="url(#clip-path)">
    <g id="Group_720" data-name="Group 720" transform="translate(-1269 -620.5)" clip-path="url(#clip-path-2)">
      <path id="Path_382" data-name="Path 382" d="M-3-27H12v15H-3Z" transform="translate(1269.5 645)" fill="#fff"/>
    </g>
  </g>
</svg>
